<?xml version="1.0" encoding="utf-8"?>
<!-- Generator: Adobe Illustrator 24.2.1, SVG Export Plug-In . SVG Version: 6.00 Build 0)  -->
<svg version="1.1" id="Layer_1" xmlns="http://www.w3.org/2000/svg" xmlns:xlink="http://www.w3.org/1999/xlink" x="0px" y="0px"
	 viewBox="0 0 359.5 421.9" style="enable-background:new 0 0 359.5 421.9;" xml:space="preserve">
<g>
	<g>
		<path d="M93.8,142.3c4.9,5.1,13.1,5.1,18.1,0.2L167,88.6v275.1c0,7.1,5.7,12.8,12.8,12.8c7.1,0,12.8-5.7,12.8-12.8V88.6l55.1,53.9
			c5,4.9,13.2,4.8,18.1-0.2c4.9-5.1,4.9-13.2-0.2-18.1l-77-75.1c-5-4.9-13.2-4.9-18.1,0.2l-76.6,74.9
			C88.9,129.1,88.8,137.2,93.8,142.3z"/>
	</g>
</g>
<path d="M113.5,0H25.2C11.3,0,0,11.3,0,25.2v371.5c0,13.9,11.3,25.2,25.2,25.2h309.1c13.9,0,25.2-11.3,25.2-25.2V25.2
	c0-13.9-11.3-25.2-25.2-25.2H246v24h84.6c2.7,0,4.9,2.2,4.9,4.9V393c0,2.7-2.2,4.9-4.9,4.9H28.9c-2.7,0-4.9-2.2-4.9-4.9V28.9
	c0-2.7,2.2-4.9,4.9-4.9h84.6V0z"/>
</svg>
